<?xml version="1.0" standalone="no"?>
<!DOCTYPE svg PUBLIC "-//W3C//DTD SVG 20010904//EN"
 "http://www.w3.org/TR/2001/REC-SVG-20010904/DTD/svg10.dtd">
<svg version="1.0" xmlns="http://www.w3.org/2000/svg"
 width="500.000000pt" height="500.000000pt" viewBox="0 0 500.000000 500.000000"
 preserveAspectRatio="xMidYMid meet">

<g transform="translate(0.000000,500.000000) scale(0.100000,-0.100000)"
fill="#000000" stroke="none">
<path d="M1917 3343 c-4 -3 -7 -159 -7 -347 0 -203 4 -336 9 -330 9 9 381 673
381 680 0 7 -376 4 -383 -3z"/>
<path d="M2427 3308 c-14 -24 -101 -187 -195 -363 -93 -176 -204 -383 -246
-460 -73 -135 -76 -142 -76 -208 l0 -67 346 2 346 3 294 550 c161 303 293 558
294 568 0 16 -24 17 -370 17 l-369 0 -24 -42z"/>
<path d="M2939 2602 l-215 -387 214 -3 c118 -1 217 -1 219 1 2 2 2 178 1 390
l-3 387 -216 -388z"/>
<path d="M870 2105 l0 -45 170 0 170 0 -175 -233 c-101 -135 -175 -243 -175
-255 l0 -22 298 0 297 0 26 73 26 72 129 3 129 3 29 -76 29 -75 54 0 c30 0 53
4 51 8 -1 5 -57 140 -122 301 l-120 292 -49 -3 -49 -3 -114 -280 c-65 -160
-113 -268 -114 -252 l0 27 -175 0 -175 0 175 234 c96 129 175 244 175 255 0
21 -4 21 -245 21 l-245 0 0 -45z m814 -200 c25 -63 46 -117 46 -120 0 -3 -43
-5 -95 -5 l-95 0 26 68 c14 37 35 91 46 120 10 28 21 52 23 52 1 0 24 -52 49
-115z"/>
<path d="M1950 1850 l0 -300 50 0 50 0 0 130 0 130 155 0 155 0 0 -130 0 -130
50 0 50 0 0 300 0 300 -50 0 -50 0 0 -125 0 -125 -155 0 -155 0 0 125 0 125
-50 0 -50 0 0 -300z"/>
<path d="M2615 1883 c-60 -148 -114 -283 -122 -300 l-13 -33 54 0 53 0 28 75
27 75 128 0 129 0 28 -75 28 -75 52 0 c29 0 53 2 53 5 0 5 -119 299 -212 523
l-30 72 -48 0 -47 0 -108 -267z m204 17 c22 -58 41 -108 41 -112 0 -5 -40 -8
-90 -8 -51 0 -90 4 -90 10 0 22 84 230 90 223 4 -5 26 -55 49 -113z"/>
<path d="M3080 1851 l0 -301 50 0 50 0 0 126 0 126 115 -4 c141 -4 148 -8 152
-105 7 -137 13 -143 133 -143 l89 0 28 75 28 76 129 -3 129 -3 26 -70 27 -70
52 -3 c29 -2 52 1 52 5 0 5 -53 139 -118 298 l-119 290 -49 3 -50 3 -108 -273
c-60 -150 -113 -277 -117 -282 -13 -15 -29 40 -29 102 0 72 -15 102 -63 126
l-39 18 39 18 c47 21 63 53 63 126 0 71 -20 108 -73 136 -38 21 -58 23 -219
26 l-178 4 0 -301z m344 188 c36 -29 37 -99 1 -134 -23 -24 -31 -25 -135 -25
l-110 0 0 90 0 90 109 0 c94 0 112 -3 135 -21z m474 -132 c23 -61 42 -115 42
-119 0 -5 -41 -8 -91 -8 -67 0 -90 3 -87 13 8 33 84 227 88 227 3 0 24 -51 48
-113z"/>
</g>
</svg>
